<svg width="680" height="438" viewBox="0 0 680 438" fill="none" xmlns="http://www.w3.org/2000/svg">
<g clip-path="url(#clip0_123_17983)">
<path d="M427.498 0H252.478C232.353 0 216.039 16.3087 216.039 36.4265C216.039 56.5443 232.353 72.8529 252.478 72.8529H427.498C447.623 72.8529 463.938 56.5443 463.938 36.4265C463.938 16.3087 447.623 0 427.498 0Z" fill="white"/>
<path d="M282.884 28.8075C280.451 28.8075 278.758 30.7152 278.758 33.4338V48.0998C284.243 47.4559 287.01 45.1904 287.01 36.987V33.4338C287.01 30.7152 285.316 28.8075 282.884 28.8075ZM264.521 45.7866H264.473C263.925 45.7866 263.4 46.0251 263.042 46.3828C261.254 48.1713 262.136 51.4622 263.448 53.1554C266.143 56.5894 269.935 57.2332 272.51 56.327C274.943 55.4924 276.397 53.37 276.517 50.4845C272.462 50.556 268.599 49.0298 265.857 46.2874C265.523 45.9535 265.046 45.7628 264.545 45.7628M270.292 58.9264C267.12 58.9264 263.925 57.3286 261.707 54.5147C259.608 51.8199 258.917 47.3367 261.469 44.785C262.232 44.0219 263.329 43.545 264.426 43.5211C265.594 43.4973 266.667 43.9027 267.454 44.6896C270.626 47.8613 274.561 48.2667 276.54 48.2429V33.41C276.54 29.499 279.283 26.542 282.908 26.542C286.533 26.542 289.275 29.499 289.275 33.41V36.9632C289.275 46.8359 285.293 49.6022 278.782 50.3176C278.711 54.2285 276.66 57.2571 273.273 58.4256C272.319 58.7594 271.294 58.9264 270.292 58.9264Z" fill="#F56000"/>
<path d="M283.003 16.1445C281.405 16.1445 280.094 17.4561 280.094 19.0538C280.094 20.6516 281.405 21.9632 283.003 21.9632C284.601 21.9632 285.913 20.6516 285.913 19.0538C285.913 17.4561 284.601 16.1445 283.003 16.1445ZM283.003 24.2048C280.165 24.2048 277.852 21.8916 277.852 19.0538C277.852 16.216 280.165 13.9028 283.003 13.9028C285.841 13.9028 288.154 16.216 288.154 19.0538C288.154 21.8916 285.841 24.2048 283.003 24.2048Z" fill="#F56000"/>
<path d="M366.09 27.6387V48.8388H363.3V32.3366L355.406 45.6909H355.12L347.202 32.2889V48.8388H344.412V27.6387H347.417L355.263 41.0407L363.109 27.6387H366.09Z" fill="#F56000"/>
<path d="M420.177 27.6387H417.41V48.8388H420.177V27.6387Z" fill="#F56000"/>
<path d="M310.596 27.6387V41.6846C310.596 42.567 310.405 43.3301 310 44.0216C309.594 44.7132 309.046 45.2378 308.378 45.6432C307.686 46.0248 306.899 46.2394 306.017 46.2394C305.135 46.2394 304.419 46.0248 303.775 45.5956C303.131 45.1663 302.583 44.5701 302.154 43.8309C302.13 43.7832 302.082 43.7593 302.034 43.7116L299.983 45.2855C300.58 46.3348 301.39 47.1933 302.416 47.8372C303.489 48.5049 304.705 48.8388 306.017 48.8388C307.424 48.8388 308.688 48.5287 309.785 47.8849C310.882 47.2648 311.764 46.3825 312.408 45.3094C313.052 44.2124 313.362 43.0201 313.362 41.6846V27.6387H310.62H310.596Z" fill="#F56000"/>
<path d="M385.502 39.2283C384.906 38.7752 384.166 38.3698 383.332 38.0598C382.497 37.7498 381.591 37.4636 380.589 37.2251C379.683 36.9867 378.848 36.7005 378.109 36.3905C377.37 36.0805 376.774 35.6751 376.32 35.1743C375.867 34.6735 375.653 34.0535 375.653 33.2904C375.653 32.5988 375.843 32.0265 376.249 31.5257C376.63 31.0249 377.203 30.6433 377.894 30.381C378.61 30.1187 379.421 29.9756 380.351 29.9756C380.971 29.9756 381.591 30.071 382.235 30.2379C382.855 30.4287 383.427 30.6672 383.952 30.9533C384.429 31.2157 384.81 31.5257 385.144 31.8595L386.957 30.4526C386.861 30.2618 386.694 30.071 386.504 29.8802C385.836 29.1648 384.953 28.6163 383.856 28.2109C382.759 27.8055 381.591 27.6147 380.351 27.6147C378.968 27.6147 377.727 27.8532 376.654 28.3302C375.581 28.8071 374.746 29.4748 374.15 30.3333C373.554 31.1918 373.244 32.2172 373.244 33.3619C373.244 34.2681 373.411 35.055 373.721 35.7466C374.031 36.4143 374.484 36.9867 375.033 37.4636C375.605 37.9405 376.273 38.3459 377.036 38.656C377.823 38.9898 378.658 39.2521 379.588 39.4668C380.637 39.7052 381.567 40.0152 382.354 40.3491C383.141 40.7068 383.785 41.1361 384.238 41.6607C384.691 42.1853 384.93 42.8531 384.953 43.6639C384.953 44.3316 384.739 44.9039 384.309 45.4285C383.88 45.9293 383.308 46.3347 382.592 46.5971C381.877 46.8832 381.066 47.0263 380.184 47.0263C379.039 47.0263 377.99 46.8355 377.084 46.4301C376.225 46.0486 375.414 45.5001 374.651 44.7847L372.767 46.2393C372.839 46.3586 372.934 46.5017 373.029 46.5971C374.079 47.5748 375.176 48.2663 376.297 48.7194C377.417 49.1725 378.729 49.3872 380.232 49.3872C381.591 49.3872 382.807 49.101 383.88 48.6241C384.953 48.1233 385.812 47.4555 386.432 46.5732C387.052 45.7147 387.362 44.7131 387.362 43.6162C387.362 42.5669 387.195 41.6845 386.861 40.9691C386.527 40.2537 386.05 39.6575 385.454 39.2044" fill="#F56000"/>
<path d="M332.774 41.47L328.195 30.0949L323.783 41.47H332.774ZM333.323 43.9024H323.211L320.945 48.8388H318.012L326.574 27.6387H329.793L338.331 48.8388H335.397L333.299 43.9024H333.323Z" fill="#F56000"/>
<path d="M406.249 41.47L401.67 30.0949L397.259 41.47H406.249ZM406.822 43.9024H396.71L394.445 48.8388H391.511L400.073 27.6387H403.292L411.83 48.8388H408.896L406.798 43.9024H406.822Z" fill="#F56000"/>
<path d="M69.7789 181C69.7789 162.256 80.582 153.862 91.2659 153.862C101.95 153.862 107.292 161.803 107.292 176.254V228.98H133.62V176.087C133.62 147.447 120.432 131.016 97.4425 131.016C85.4708 131.016 76.027 135.285 69.7789 143.464V65.6987H43.4746V228.98H69.7789V181Z" fill="white"/>
<path d="M255.268 228.98V132.995H228.94V143.083C221.523 135.237 211.316 130.992 199.631 130.992C172.253 130.992 152.364 151.858 152.364 180.618C152.364 209.378 172.158 230.959 199.44 230.959C211.34 230.959 221.786 226.619 228.94 218.893V228.956H255.268V228.98ZM229.488 181.715C229.488 197.621 219.234 208.305 203.995 208.305C188.756 208.305 178.859 197.001 178.859 180.809C178.859 167.311 186.467 153.671 203.447 153.671C219.019 153.671 229.488 164.927 229.488 181.715Z" fill="white"/>
<path d="M337.138 130.992C325.238 130.992 314.793 135.332 307.638 143.059V132.995H281.31V270.617H307.638V218.869C315.055 226.714 325.262 230.959 336.947 230.959C364.325 230.959 384.214 210.093 384.214 181.333C384.214 152.574 364.42 130.968 337.138 130.968V130.992ZM357.719 181.166C357.719 194.664 350.111 208.304 333.132 208.304C317.559 208.304 307.09 197.049 307.09 180.26C307.09 164.354 317.344 153.671 332.583 153.671C347.822 153.671 357.719 164.974 357.719 181.166Z" fill="white"/>
<path d="M460.05 130.992C448.15 130.992 437.705 135.332 430.55 143.059V132.995H404.246V270.617H430.55V218.869C437.967 226.714 448.174 230.959 459.859 230.959C487.237 230.959 507.126 210.093 507.126 181.333C507.126 152.574 487.332 130.968 460.05 130.968V130.992ZM480.631 181.166C480.631 194.664 473.024 208.304 456.044 208.304C440.471 208.304 430.002 197.049 430.002 180.26C430.002 164.354 440.256 153.671 455.495 153.671C470.734 153.671 480.631 164.974 480.631 181.166Z" fill="white"/>
<path d="M110.106 408.382C106.338 411.959 101.02 414.105 95.9164 414.105C82.9193 414.105 75.6457 398.843 73.0939 384.177C91.5999 378.978 103.476 362.643 103.476 342.278C103.476 311.396 80.8922 297.35 59.906 297.35H0V435.854H27.2105V385.846H47.982C49.9376 404.495 61.4561 438 92.4346 438C103.405 438 111.775 434.781 120.432 427.197L121.1 426.601L111.227 407.309L110.106 408.382ZM75.8841 342.087C75.8841 355.227 68.0859 363.692 56.0188 363.692H27.2105V320.267H56.0188C67.7043 320.267 75.8841 329.233 75.8841 342.063V342.087Z" fill="white"/>
<path d="M180.601 332.953C149.217 332.953 125.536 355.704 125.536 385.87C125.536 416.037 149.288 438 183.319 438C202.278 438 217.136 431.704 228.749 418.731L229.489 417.921L214.322 402.969L213.511 403.708C204.544 411.84 195.601 415.464 184.512 415.464C165.433 415.464 152.46 405.258 151.84 389.948H233.543V388.803C233.543 347.595 205.045 332.977 180.624 332.977L180.601 332.953ZM153.438 371.49C159.471 356.037 174.329 354.344 180.601 354.344C185.513 354.344 201.587 355.608 206.332 371.49H153.438Z" fill="white"/>
<path d="M327.384 347.452C319.538 338.081 308.187 332.953 295.071 332.953C266.334 332.953 245.467 354.869 245.467 385.083C245.467 415.297 266.238 438 294.88 438C308.282 438 319.92 432.754 327.384 423.477V435.878H353.617V335.123H327.384V347.476V347.452ZM327.957 386.252C327.957 403.827 316.605 415.655 299.721 415.655C282.837 415.655 271.89 403.159 271.89 385.298C271.89 367.436 283.099 355.322 299.149 355.322C316.391 355.322 327.957 367.77 327.957 386.276V386.252Z" fill="white"/>
<path d="M449.7 347.5C441.711 338.081 430.288 332.953 417.196 332.953C388.101 332.953 367.783 354.392 367.783 385.083C367.783 415.774 388.483 438 417.005 438C430.36 438 442.093 432.73 449.7 423.406V435.854H475.933V292.866H449.7V347.5ZM450.082 386.252C450.082 403.827 438.826 415.655 422.037 415.655C405.248 415.655 394.206 403.159 394.206 385.298C394.206 370.37 402.577 355.322 421.274 355.322C438.516 355.322 450.082 367.77 450.082 386.276V386.252Z" fill="white"/>
<path d="M547.834 332.953C516.451 332.953 492.793 355.704 492.793 385.87C492.793 416.037 516.546 438 550.577 438C569.536 438 584.393 431.704 596.007 418.731L596.747 417.921L581.579 402.969L580.768 403.708C571.802 411.84 562.859 415.464 551.769 415.464C532.691 415.464 519.718 405.258 519.098 389.948H600.801V388.803C600.801 347.595 572.302 332.977 547.882 332.977L547.834 332.953ZM520.672 371.49C526.705 356.037 541.562 354.344 547.834 354.344C552.747 354.344 568.821 355.608 573.566 371.49H520.672Z" fill="white"/>
<path d="M678.593 334.194C675.97 333.502 673.919 332.93 670.652 332.93C661.279 332.93 650.214 338.462 644.943 350.433V335.052H619.092V435.806H645.325V389.114C645.325 361.189 660.85 358.16 667.527 358.16C670.198 358.16 674.658 358.661 678.402 360.044L679.952 360.616V334.527L678.569 334.146L678.593 334.194Z" fill="white"/>
<path d="M190.616 254.639V256.166C190.616 272.167 177.595 285.164 161.617 285.164C145.639 285.164 132.618 272.143 132.618 256.166V254.639H111.99V256.166C111.99 283.518 134.24 305.791 161.617 305.791C188.995 305.791 211.245 283.542 211.245 256.166V254.639H190.616Z" fill="white"/>
<path d="M632.137 200.65C632.042 195.785 631.946 190.944 631.946 186.127V134.736H606.024V186.127C606.024 200.65 594.195 212.478 579.672 212.478C565.148 212.478 553.32 200.65 553.32 186.127V134.736H527.397V186.127C527.397 214.958 550.84 238.4 579.672 238.4C588.925 238.4 597.868 235.991 605.809 231.365C603.734 259.767 584.847 282.278 562.382 282.278C543.375 282.278 526.229 265.895 520.648 242.454L520.195 240.498L494.964 246.508L495.417 248.463C503.788 283.638 531.308 308.224 562.382 308.224C601.23 308.224 628.56 270.26 631.565 235.085C632.543 223.71 632.328 212.001 632.113 200.65H632.137Z" fill="white"/>
</g>
<defs>
<clipPath id="clip0_123_17983">
<rect width="680" height="438" fill="white"/>
</clipPath>
</defs>
</svg>
