<svg width="680" height="373" viewBox="0 0 680 373" fill="none" xmlns="http://www.w3.org/2000/svg">
<path fill-rule="evenodd" clip-rule="evenodd" d="M91.2898 88.1628C80.6059 88.1628 69.8028 96.557 69.8028 115.301V163.281H43.4985V0H69.8028V77.7654C76.051 69.5859 85.4948 65.3172 97.4664 65.3172C120.456 65.3172 133.644 81.7479 133.644 110.388V163.281H107.316V110.555C107.316 96.1039 101.974 88.1628 91.2898 88.1628ZM255.292 67.2966V163.257H228.964V153.194C221.81 160.92 211.364 165.261 199.464 165.261C172.182 165.261 152.388 143.679 152.388 114.919C152.388 86.1597 172.277 65.2935 199.655 65.2935C211.34 65.2935 221.547 69.5382 228.964 77.3839V67.2966H255.292ZM204.019 142.606C219.258 142.606 229.512 131.922 229.512 116.016C229.512 99.2279 219.043 87.9721 203.47 87.9721C186.491 87.9721 178.883 101.613 178.883 115.11C178.883 131.302 188.78 142.606 204.019 142.606ZM337.162 65.2934C325.262 65.2934 314.816 69.6336 307.662 77.36V67.2965H281.334V204.918H307.662V153.17C315.079 161.016 325.286 165.26 336.971 165.26C364.349 165.26 384.238 144.394 384.238 115.635C384.238 86.875 364.444 65.2695 337.162 65.2695V65.2934ZM357.743 115.468C357.743 128.965 350.135 142.606 333.156 142.606C317.583 142.606 307.114 131.35 307.114 114.562C307.114 98.6555 317.368 87.972 332.607 87.972C347.846 87.972 357.743 99.2755 357.743 115.468ZM430.574 77.36C437.729 69.6336 448.174 65.2934 460.074 65.2934V65.2695C487.356 65.2695 507.15 86.875 507.15 115.635C507.15 144.394 487.261 165.26 459.883 165.26C448.198 165.26 437.991 161.016 430.574 153.17V204.918H404.27V67.2965H430.574V77.36ZM456.068 142.606C473.047 142.606 480.655 128.965 480.655 115.468C480.655 99.2755 470.758 87.972 455.519 87.972C440.28 87.972 430.026 98.6555 430.026 114.562C430.026 131.35 440.495 142.606 456.068 142.606ZM110.13 342.683C106.362 346.26 101.044 348.406 95.9403 348.406C82.9432 348.406 75.6696 333.144 73.1178 318.478C91.6238 313.28 103.5 296.944 103.5 276.579C103.5 245.697 80.9161 231.651 59.9299 231.651H0.0239258V370.155H27.2344V320.148H48.006C49.9615 338.796 61.4801 372.301 92.4585 372.301C103.429 372.301 111.799 369.082 120.456 361.498L121.124 360.902L111.251 341.61L110.13 342.683ZM75.9081 276.388C75.9081 289.528 68.1098 297.994 56.0427 297.994H27.2344V254.568H56.0427C67.7282 254.568 75.9081 263.534 75.9081 276.364V276.388ZM125.56 320.172C125.56 290.005 149.241 267.255 180.624 267.255L180.648 267.279C205.069 267.279 233.567 281.897 233.567 323.105V324.25H151.864C152.484 339.559 165.457 349.766 184.536 349.766C195.625 349.766 204.568 346.141 213.535 338.009L214.345 337.27L229.513 352.222L228.773 353.033C217.159 366.006 202.302 372.301 183.343 372.301C149.312 372.301 125.56 350.338 125.56 320.172ZM180.624 288.646C174.352 288.646 159.495 290.339 153.462 305.792H206.356C201.611 289.91 185.537 288.646 180.624 288.646ZM327.408 281.754C319.562 272.382 308.211 267.255 295.094 267.255C266.358 267.255 245.491 289.17 245.491 319.385C245.491 349.599 266.262 372.301 294.904 372.301C308.306 372.301 319.944 367.055 327.408 357.779V370.179H353.641V269.425H327.408V281.754ZM327.981 320.565C327.976 338.134 316.625 349.957 299.745 349.957C282.86 349.957 271.914 337.461 271.914 319.599C271.914 301.738 283.123 289.624 299.172 289.624C316.411 289.624 327.976 302.066 327.981 320.565ZM417.22 267.254C430.312 267.254 441.735 272.382 449.724 281.801V227.167H475.957V370.155H449.724V357.707C442.117 367.031 430.384 372.301 417.029 372.301C388.507 372.301 367.807 350.076 367.807 319.384C367.807 288.693 388.125 267.254 417.22 267.254ZM422.061 349.956C438.846 349.956 450.101 338.133 450.106 320.564C450.101 302.066 438.536 289.623 421.298 289.623C402.601 289.623 394.23 304.671 394.23 319.599C394.23 337.46 405.272 349.956 422.061 349.956ZM547.858 267.255C516.475 267.255 492.817 290.005 492.817 320.172C492.817 350.338 516.57 372.301 550.601 372.301C569.56 372.301 584.417 366.006 596.031 353.033L596.771 352.222L581.603 337.27L580.792 338.009C571.826 346.141 562.883 349.766 551.793 349.766C532.715 349.766 519.742 339.559 519.122 324.25H600.825V323.105C600.825 281.897 572.326 267.279 547.906 267.279L547.858 267.255ZM520.696 305.792C526.729 290.339 541.586 288.646 547.858 288.646C552.771 288.646 568.845 289.91 573.59 305.792H520.696ZM678.347 268.424L678.617 268.495L678.593 268.447L679.976 268.829V294.917L678.426 294.345C674.682 292.962 670.222 292.461 667.551 292.461C660.874 292.461 645.349 295.49 645.349 323.415V370.107H619.116V269.353H644.967V284.735C650.238 272.763 661.303 267.231 670.675 267.231C673.83 267.231 675.851 267.764 678.347 268.424ZM190.64 188.941V190.467C190.64 206.469 177.619 219.465 161.641 219.465C145.663 219.465 132.642 206.445 132.642 190.467V188.941H112.014V190.467C112.014 217.82 134.264 240.093 161.641 240.093C189.019 240.093 211.269 217.844 211.269 190.467V188.941H190.64ZM632.159 134.87L632.161 134.951H632.137C632.352 146.302 632.566 158.011 631.589 169.386C628.584 204.561 601.254 242.525 562.406 242.525C531.332 242.525 503.812 217.939 495.441 182.765L494.988 180.809L520.219 174.8L520.672 176.755C526.252 200.197 543.399 216.58 562.406 216.58C584.871 216.58 603.758 194.068 605.833 165.666C597.892 170.292 588.949 172.701 579.696 172.701C550.864 172.701 527.421 149.259 527.421 120.428V69.0376H553.344V120.428C553.344 134.951 565.172 146.779 579.696 146.779C594.219 146.779 606.048 134.951 606.048 120.428V69.0376H631.97V120.428C631.97 125.219 632.065 130.033 632.159 134.87Z" fill="#FF564A"/>
</svg>
