<svg width="744" height="437" viewBox="0 0 744 437" fill="none" xmlns="http://www.w3.org/2000/svg">
<g filter="url(#filter0_d_179_2099)">
<path fill-rule="evenodd" clip-rule="evenodd" d="M123.29 112.163C112.606 112.163 101.803 120.557 101.803 139.301V187.281H75.4985V24H101.803V101.765C108.051 93.5859 117.495 89.3172 129.466 89.3172C152.456 89.3172 165.644 105.748 165.644 134.388V187.281H139.316V134.555C139.316 120.104 133.974 112.163 123.29 112.163ZM287.292 91.2966V187.257H260.964V177.194C253.81 184.92 243.364 189.261 231.464 189.261C204.182 189.261 184.388 167.679 184.388 138.919C184.388 110.16 204.277 89.2935 231.655 89.2935C243.34 89.2935 253.547 93.5382 260.964 101.384V91.2966H287.292ZM236.019 166.606C251.258 166.606 261.512 155.922 261.512 140.016C261.512 123.228 251.043 111.972 235.47 111.972C218.491 111.972 210.883 125.613 210.883 139.11C210.883 155.302 220.78 166.606 236.019 166.606ZM369.162 89.2934C357.262 89.2934 346.816 93.6336 339.662 101.36V91.2965H313.334V228.918H339.662V177.17C347.079 185.016 357.286 189.26 368.971 189.26C396.349 189.26 416.238 168.394 416.238 139.635C416.238 110.875 396.444 89.2695 369.162 89.2695V89.2934ZM389.743 139.468C389.743 152.965 382.135 166.606 365.156 166.606C349.583 166.606 339.114 155.35 339.114 138.562C339.114 122.655 349.368 111.972 364.607 111.972C379.846 111.972 389.743 123.276 389.743 139.468ZM462.574 101.36C469.729 93.6336 480.174 89.2934 492.074 89.2934V89.2695C519.356 89.2695 539.15 110.875 539.15 139.635C539.15 168.394 519.261 189.26 491.883 189.26C480.198 189.26 469.991 185.016 462.574 177.17V228.918H436.27V91.2965H462.574V101.36ZM488.068 166.606C505.047 166.606 512.655 152.965 512.655 139.468C512.655 123.276 502.758 111.972 487.519 111.972C472.28 111.972 462.026 122.655 462.026 138.562C462.026 155.35 472.495 166.606 488.068 166.606ZM142.13 366.683C138.362 370.26 133.044 372.406 127.94 372.406C114.943 372.406 107.67 357.144 105.118 342.478C123.624 337.28 135.5 320.944 135.5 300.579C135.5 269.697 112.916 255.651 91.9299 255.651H32.0239V394.155H59.2344V344.148H80.006C81.9615 362.796 93.4801 396.301 124.459 396.301C135.429 396.301 143.799 393.082 152.456 385.498L153.124 384.902L143.251 365.61L142.13 366.683ZM107.908 300.388C107.908 313.528 100.11 321.994 88.0427 321.994H59.2344V278.568H88.0427C99.7282 278.568 107.908 287.534 107.908 300.364V300.388ZM157.56 344.172C157.56 314.005 181.241 291.255 212.624 291.255L212.648 291.279C237.069 291.279 265.567 305.897 265.567 347.105V348.25H183.864C184.484 363.559 197.457 373.766 216.536 373.766C227.625 373.766 236.568 370.141 245.535 362.009L246.345 361.27L261.513 376.222L260.773 377.033C249.159 390.006 234.302 396.301 215.343 396.301C181.312 396.301 157.56 374.338 157.56 344.172ZM212.624 312.646C206.352 312.646 191.495 314.339 185.462 329.792H238.356C233.611 313.91 217.537 312.646 212.624 312.646ZM359.408 305.754C351.562 296.382 340.211 291.255 327.094 291.255C298.358 291.255 277.491 313.17 277.491 343.385C277.491 373.599 298.262 396.301 326.904 396.301C340.306 396.301 351.944 391.055 359.408 381.779V394.179H385.641V293.425H359.408V305.754ZM359.981 344.565C359.976 362.134 348.625 373.957 331.745 373.957C314.86 373.957 303.914 361.461 303.914 343.599C303.914 325.738 315.123 313.624 331.172 313.624C348.411 313.624 359.976 326.066 359.981 344.565ZM449.22 291.254C462.312 291.254 473.735 296.382 481.724 305.801V251.167H507.957V394.155H481.724V381.707C474.117 391.031 462.384 396.301 449.029 396.301C420.507 396.301 399.807 374.076 399.807 343.384C399.807 312.693 420.125 291.254 449.22 291.254ZM454.061 373.956C470.846 373.956 482.101 362.133 482.106 344.564C482.101 326.066 470.536 313.623 453.298 313.623C434.601 313.623 426.23 328.671 426.23 343.599C426.23 361.46 437.272 373.956 454.061 373.956ZM579.858 291.255C548.475 291.255 524.817 314.005 524.817 344.172C524.817 374.338 548.57 396.301 582.601 396.301C601.56 396.301 616.417 390.006 628.031 377.033L628.771 376.222L613.603 361.27L612.792 362.009C603.826 370.141 594.883 373.766 583.793 373.766C564.715 373.766 551.742 363.559 551.122 348.25H632.825V347.105C632.825 305.897 604.326 291.279 579.906 291.279L579.858 291.255ZM552.696 329.792C558.729 314.339 573.586 312.646 579.858 312.646C584.771 312.646 600.845 313.91 605.59 329.792H552.696ZM710.347 292.424L710.617 292.495L710.593 292.447L711.976 292.829V318.917L710.426 318.345C706.682 316.962 702.222 316.461 699.551 316.461C692.874 316.461 677.349 319.49 677.349 347.415V394.107H651.116V293.353H676.967V308.735C682.238 296.763 693.303 291.231 702.675 291.231C705.83 291.231 707.851 291.764 710.347 292.424ZM222.64 212.941V214.467C222.64 230.469 209.619 243.465 193.641 243.465C177.663 243.465 164.642 230.445 164.642 214.467V212.941H144.014V214.467C144.014 241.82 166.264 264.093 193.641 264.093C221.019 264.093 243.269 241.844 243.269 214.467V212.941H222.64ZM664.159 158.87L664.161 158.951H664.137C664.352 170.302 664.566 182.011 663.589 193.386C660.584 228.561 633.254 266.525 594.406 266.525C563.332 266.525 535.812 241.939 527.441 206.765L526.988 204.809L552.219 198.8L552.672 200.755C558.252 224.197 575.399 240.58 594.406 240.58C616.871 240.58 635.758 218.068 637.833 189.666C629.892 194.292 620.949 196.701 611.696 196.701C582.864 196.701 559.421 173.259 559.421 144.428V93.0376H585.344V144.428C585.344 158.951 597.172 170.779 611.696 170.779C626.219 170.779 638.048 158.951 638.048 144.428V93.0376H663.97V144.428C663.97 149.219 664.065 154.033 664.159 158.87Z" fill="#E2211C"/>
</g>
<defs>
<filter id="filter0_d_179_2099" x="0.0239258" y="0" width="743.952" height="436.302" filterUnits="userSpaceOnUse" color-interpolation-filters="sRGB">
<feFlood flood-opacity="0" result="BackgroundImageFix"/>
<feColorMatrix in="SourceAlpha" type="matrix" values="0 0 0 0 0 0 0 0 0 0 0 0 0 0 0 0 0 0 127 0" result="hardAlpha"/>
<feOffset dy="8"/>
<feGaussianBlur stdDeviation="16"/>
<feComposite in2="hardAlpha" operator="out"/>
<feColorMatrix type="matrix" values="0 0 0 0 0.301961 0 0 0 0 0.301961 0 0 0 0 0.301961 0 0 0 0.3 0"/>
<feBlend mode="normal" in2="BackgroundImageFix" result="effect1_dropShadow_179_2099"/>
<feBlend mode="normal" in="SourceGraphic" in2="effect1_dropShadow_179_2099" result="shape"/>
</filter>
</defs>
</svg>
