<svg width="674" height="369" viewBox="0 0 674 369" fill="none" xmlns="http://www.w3.org/2000/svg">
<path fill-rule="evenodd" clip-rule="evenodd" d="M90.7136 87.6846C80.1359 87.6846 69.4401 95.9954 69.4401 114.553V162.057H43.3972V0.397705H69.4401V77.3905C75.6262 69.2922 84.9762 65.066 96.8289 65.066C119.59 65.066 132.647 81.3334 132.647 109.689V162.057H106.58V109.855C106.58 95.5468 101.291 87.6846 90.7136 87.6846ZM253.086 67.0255V162.033H227.02V152.069C219.937 159.719 209.595 164.016 197.813 164.016C170.802 164.016 151.205 142.649 151.205 114.175C151.205 85.7012 170.897 65.0423 198.002 65.0423C209.571 65.0423 219.677 69.2449 227.02 77.0127V67.0255H253.086ZM202.323 141.587C217.41 141.587 227.563 131.009 227.563 115.261C227.563 98.6396 217.198 87.4956 201.78 87.4956C184.969 87.4956 177.437 101.001 177.437 114.364C177.437 130.395 187.235 141.587 202.323 141.587ZM334.143 65.0424C322.361 65.0424 312.019 69.3394 304.936 76.9891V67.0256H278.87V203.28H304.936V152.046C312.279 159.814 322.385 164.016 333.954 164.016C361.059 164.016 380.751 143.357 380.751 114.883C380.751 86.4096 361.154 65.0187 334.143 65.0187V65.0424ZM354.519 114.718C354.519 128.082 346.987 141.587 330.176 141.587C314.758 141.587 304.393 130.443 304.393 113.821C304.393 98.073 314.546 87.4957 329.633 87.4957C344.721 87.4957 354.519 98.6869 354.519 114.718ZM426.627 76.9891C433.71 69.3394 444.052 65.0424 455.834 65.0424V65.0187C482.845 65.0187 502.442 86.4096 502.442 114.883C502.442 143.357 482.75 164.016 455.645 164.016C444.075 164.016 433.97 159.814 426.627 152.046V203.28H400.584V67.0256H426.627V76.9891ZM451.867 141.587C468.678 141.587 476.21 128.082 476.21 114.718C476.21 98.6869 466.411 87.4957 451.324 87.4957C436.236 87.4957 426.084 98.073 426.084 113.821C426.084 130.443 436.449 141.587 451.867 141.587ZM109.366 339.676C105.635 343.218 100.37 345.343 95.3175 345.343C82.4495 345.343 75.2481 330.232 72.7217 315.712C91.0439 310.565 102.802 294.392 102.802 274.229C102.802 243.653 80.4425 229.747 59.6648 229.747H0.354004V366.875H27.2942V317.364H47.8593C49.7954 335.828 61.1996 369 91.8702 369C102.731 369 111.019 365.813 119.59 358.305L120.251 357.714L110.476 338.614L109.366 339.676ZM75.4842 274.04C75.4842 287.049 67.7634 295.431 55.8162 295.431H27.2942V252.436H55.8162C67.3856 252.436 75.4842 261.314 75.4842 274.016V274.04ZM124.642 317.388C124.642 287.521 148.088 264.997 179.16 264.997L179.184 265.021C203.361 265.021 231.576 279.494 231.576 320.292V321.425H150.685C151.299 336.583 164.143 346.688 183.032 346.688C194.011 346.688 202.865 343.1 211.743 335.048L212.546 334.317L227.562 349.12L226.83 349.923C215.332 362.767 200.622 369 181.852 369C148.159 369 124.642 347.255 124.642 317.388ZM179.16 286.175C172.95 286.175 158.241 287.852 152.267 303.151H204.636C199.938 287.427 184.024 286.175 179.16 286.175ZM324.486 279.352C316.718 270.073 305.479 264.997 292.493 264.997C264.042 264.997 243.382 286.695 243.382 316.609C243.382 346.523 263.947 369 292.304 369C305.573 369 317.095 363.806 324.486 354.621V366.899H350.458V267.146H324.486V279.352ZM325.052 317.777C325.047 335.172 313.81 346.877 297.097 346.877C280.38 346.877 269.543 334.505 269.543 316.821C269.543 299.137 280.64 287.143 296.53 287.143C313.597 287.143 325.047 299.462 325.052 317.777ZM413.405 264.997C426.368 264.997 437.677 270.073 445.587 279.399V225.308H471.559V366.875H445.587V354.551C438.055 363.782 426.438 369 413.216 369C384.978 369 364.483 346.995 364.483 316.609C364.483 286.223 384.6 264.997 413.405 264.997ZM418.198 346.877C434.817 346.877 445.96 335.172 445.965 317.777C445.96 299.463 434.51 287.143 417.443 287.143C398.932 287.143 390.644 302.042 390.644 316.822C390.644 334.506 401.576 346.877 418.198 346.877ZM542.746 264.997C511.674 264.997 488.252 287.521 488.252 317.388C488.252 347.255 511.768 369 545.461 369C564.232 369 578.942 362.767 590.44 349.923L591.172 349.12L576.155 334.317L575.353 335.048C566.475 343.1 557.621 346.688 546.642 346.688C527.753 346.688 514.909 336.583 514.295 321.425H595.186V320.292C595.186 279.494 566.971 265.021 542.793 265.021L542.746 264.997ZM515.853 303.151C521.827 287.852 536.536 286.175 542.746 286.175C547.61 286.175 563.524 287.427 568.222 303.151H515.853ZM671.938 266.154L672.205 266.225L672.182 266.178L673.551 266.555V292.385L672.016 291.818C668.309 290.449 663.894 289.953 661.25 289.953C654.639 289.953 639.268 292.952 639.268 320.599V366.828H613.296V267.075H638.89V282.303C644.108 270.451 655.064 264.973 664.343 264.973C667.466 264.973 669.466 265.502 671.938 266.154ZM189.077 187.461V188.972C189.077 204.815 176.185 217.682 160.366 217.682C144.546 217.682 131.655 204.791 131.655 188.972V187.461H111.231V188.972C111.231 216.053 133.26 238.105 160.366 238.105C187.471 238.105 209.5 216.077 209.5 188.972V187.461H189.077ZM626.21 133.937L626.211 134.008H626.188C626.4 145.246 626.612 156.839 625.644 168.101C622.669 202.926 595.611 240.513 557.149 240.513C526.384 240.513 499.137 216.171 490.849 181.346L490.401 179.41L515.381 173.46L515.83 175.396C521.355 198.605 538.331 214.825 557.149 214.825C579.391 214.825 598.09 192.537 600.145 164.418C592.282 168.998 583.428 171.383 574.267 171.383C545.721 171.383 522.512 148.174 522.512 119.629V68.7492H548.177V119.629C548.177 134.008 559.888 145.718 574.267 145.718C588.646 145.718 600.357 134.008 600.357 119.629V68.7492H626.022V119.629C626.022 124.375 626.116 129.144 626.21 133.937Z" fill="#F66000"/>
</svg>
