<svg width="328" height="97" viewBox="0 0 328 97" fill="none" xmlns="http://www.w3.org/2000/svg">
<path d="M279.933 0.891113H49.05C22.5014 0.891113 0.979492 22.4058 0.979492 48.9455C0.979492 75.4852 22.5014 96.9999 49.05 96.9999H279.933C306.481 96.9999 328.003 75.4852 328.003 48.9455C328.003 22.4058 306.481 0.891113 279.933 0.891113Z" fill="#F66000"/>
<path d="M89.1614 38.8942C85.9525 38.8942 83.7188 41.4109 83.7188 44.9973V64.3449C90.9546 63.4955 94.6039 60.5068 94.6039 49.6848V44.9973C94.6039 41.4109 92.3703 38.8942 89.1614 38.8942ZM64.9374 61.2933H64.8745C64.1509 61.2933 63.4588 61.6079 62.9869 62.0798C60.6274 64.4393 61.7914 68.7807 63.5217 71.0143C67.0766 75.5445 72.0787 76.3939 75.4764 75.1984C78.6853 74.0973 80.6043 71.2974 80.7616 67.4908C75.4135 67.5852 70.317 65.5718 66.6991 61.954C66.2587 61.5135 65.6295 61.2619 64.9688 61.2619M72.5506 78.6275C68.3665 78.6275 64.1509 76.5197 61.2251 72.8075C58.4567 69.2526 57.5443 63.3382 60.9105 59.972C61.9172 58.9653 63.3644 58.3361 64.8115 58.3047C66.3531 58.2732 67.7688 58.808 68.8069 59.8462C72.9911 64.0303 78.1819 64.5651 80.7931 64.5337V44.9659C80.7931 39.8065 84.4109 35.9055 89.1928 35.9055C93.9747 35.9055 97.5926 39.8065 97.5926 44.9659V49.6533C97.5926 62.6775 92.3388 66.3268 83.7503 67.2706C83.6559 72.43 80.9504 76.4253 76.4831 77.9669C75.2247 78.4073 73.8719 78.6275 72.5506 78.6275Z" fill="white"/>
<path d="M89.3182 22.1892C87.2104 22.1892 85.4801 23.9195 85.4801 26.0273C85.4801 28.1351 87.2104 29.8654 89.3182 29.8654C91.426 29.8654 93.1563 28.1351 93.1563 26.0273C93.1563 23.9195 91.426 22.1892 89.3182 22.1892ZM89.3182 32.8226C85.5745 32.8226 82.5229 29.771 82.5229 26.0273C82.5229 22.2836 85.5745 19.2321 89.3182 19.2321C93.0619 19.2321 96.1135 22.2836 96.1135 26.0273C96.1135 29.771 93.0619 32.8226 89.3182 32.8226Z" fill="white"/>
<path d="M198.925 37.3528V65.3203H195.244V43.5503L184.831 61.1676H184.453L174.008 43.4874V65.3203H170.328V37.3528H174.292L184.642 55.033L194.992 37.3528H198.925Z" fill="white"/>
<path d="M270.275 37.3528H266.625V65.3203H270.275V37.3528Z" fill="white"/>
<path d="M125.718 37.3528V55.8824C125.718 57.0464 125.466 58.0531 124.931 58.9655C124.397 59.8778 123.673 60.5699 122.792 61.1047C121.88 61.6081 120.842 61.8912 119.678 61.8912C118.514 61.8912 117.57 61.6081 116.72 61.0418C115.871 60.4755 115.147 59.689 114.581 58.7138C114.55 58.6509 114.487 58.6194 114.424 58.5565L111.718 60.6328C112.505 62.017 113.574 63.1496 114.927 63.999C116.343 64.8798 117.947 65.3203 119.678 65.3203C121.534 65.3203 123.201 64.9113 124.648 64.0619C126.095 63.2439 127.259 62.0799 128.109 60.6643C128.958 59.2171 129.367 57.6442 129.367 55.8824V37.3528H125.749H125.718Z" fill="white"/>
<path d="M224.532 52.6419C223.745 52.0442 222.77 51.5094 221.669 51.1004C220.568 50.6915 219.373 50.3139 218.051 49.9993C216.856 49.6847 215.755 49.3072 214.779 48.8983C213.804 48.4893 213.018 47.9545 212.42 47.2938C211.822 46.6332 211.539 45.8152 211.539 44.8085C211.539 43.8962 211.791 43.1412 212.326 42.4805C212.829 41.8199 213.584 41.3165 214.496 40.9705C215.44 40.6244 216.51 40.4357 217.737 40.4357C218.555 40.4357 219.373 40.5615 220.222 40.7817C221.04 41.0334 221.795 41.348 222.487 41.7255C223.116 42.0715 223.62 42.4805 224.06 42.921L226.451 41.0648C226.325 40.8132 226.105 40.5615 225.853 40.3098C224.972 39.366 223.808 38.6425 222.361 38.1077C220.914 37.5728 219.373 37.3212 217.737 37.3212C215.912 37.3212 214.276 37.6358 212.86 38.265C211.445 38.8941 210.344 39.775 209.557 40.9076C208.771 42.0401 208.362 43.3928 208.362 44.9029C208.362 46.0984 208.582 47.1365 208.991 48.0489C209.4 48.9297 209.998 49.6847 210.721 50.3139C211.476 50.9431 212.357 51.4779 213.364 51.8869C214.402 52.3273 215.503 52.6734 216.73 52.9565C218.114 53.2711 219.341 53.6801 220.379 54.1205C221.417 54.5924 222.267 55.1587 222.865 55.8508C223.462 56.5429 223.777 57.4238 223.808 58.4934C223.808 59.3743 223.525 60.1293 222.959 60.8214C222.393 61.4821 221.638 62.0169 220.694 62.3629C219.75 62.7404 218.68 62.9292 217.516 62.9292C216.006 62.9292 214.622 62.6775 213.427 62.1427C212.294 61.6394 211.224 60.9158 210.218 59.972L207.732 61.891C207.827 62.0483 207.953 62.2371 208.078 62.3629C209.463 63.6528 210.91 64.5651 212.388 65.1628C213.867 65.7606 215.597 66.0437 217.579 66.0437C219.373 66.0437 220.977 65.6662 222.393 65.037C223.808 64.3763 224.941 63.4955 225.759 62.3315C226.577 61.1989 226.986 59.8776 226.986 58.4305C226.986 57.0463 226.766 55.8823 226.325 54.9385C225.885 53.9947 225.256 53.2082 224.469 52.6105" fill="white"/>
<path d="M154.975 55.5993L148.935 40.5931L143.115 55.5993H154.975ZM155.699 58.8082H142.36L139.371 65.3203H135.501L146.795 37.3528H151.043L162.305 65.3203H158.436L155.667 58.8082H155.699Z" fill="white"/>
<path d="M251.903 55.5993L245.862 40.5931L240.042 55.5993H251.903ZM252.658 58.8082H239.319L236.33 65.3203H232.46L243.754 37.3528H248.002L259.264 65.3203H255.395L252.626 58.8082H252.658Z" fill="white"/>
</svg>
